<svg version="1.1" id="Artboard_1" xmlns="http://www.w3.org/2000/svg" xmlns:xlink="http://www.w3.org/1999/xlink" x="0px" y="0px"
	 width="1971.1228027px" height="210.0821075px" viewBox="0 0 1971.1228027 210.0821075"
	 style="enable-background:new 0 0 1971.1228027 210.0821075;" xml:space="preserve">
<style type="text/css">
	.st0{fill:#003A96;}
	.st1{fill:#009CA6;}
</style>
<g>
	<g>
		<path class="st0" d="M226.4685059,141.3164825v7.4814453H204.439209v17.6943359h19.5820312v7.4804688H204.439209v21.4355469
			h-9.6464844v-54.0917969H226.4685059z"/>
		<path class="st0" d="M249.5827637,196.4151154c-12.1669922,0-19.2939453-7.0488281-19.2939453-20.7158203
			c0-13.5224609,6.9833984-20.859375,19.4375-20.859375c12.1660156,0,19.2939453,7.0488281,19.2939453,20.7158203
			C269.0202637,189.0782013,262.0368652,196.4151154,249.5827637,196.4151154z M258.9411621,175.628006
			c0-8.9199219-2.9511719-14.0263672-9.2871094-14.0263672c-6.6230469,0-9.2861328,5.5380859-9.2861328,14.0263672
			c0,8.9189453,2.9511719,14.0263672,9.2861328,14.0263672C256.2770996,189.6543732,258.9411621,184.1153107,258.9411621,175.628006
			z"/>
		<path class="st0" d="M304.8044434,195.4082794l-1.7275391-6.7617188c-1.1523438,4.4599609-4.8955078,7.625-11.6630859,7.625
			c-5.6152344,0-9.0703125-2.1582031-10.9423828-4.8916016c-2.3037109-3.3085938-2.3037109-7.4804688-2.3037109-12.2275391
			V155.846756h9.5029297v23.4492188c0,2.3017578,0,4.6035156,1.2958984,6.4736328s3.5996094,2.8769531,6.4785156,2.8769531
			c6.6240234,0,7.1992188-5.6103516,7.1992188-8.6308594V155.846756h9.5029297v39.5615234H304.8044434z"/>
		<path class="st0" d="M330.9411621,155.846756l1.7285156,6.7617188c1.2949219-4.6035156,4.8945312-7.625,11.734375-7.625
			c6.1191406,0,9.5742188,2.4462891,11.4462891,5.1787109c2.3037109,3.3095703,2.3037109,7.1933594,2.3037109,11.9404297v23.3056641
			h-9.5029297v-23.4492188c0-2.3017578,0-4.6035156-1.2958984-6.4736328s-3.1679688-2.8769531-6.2626953-2.8769531
			c-7.1279297,0-7.9912109,5.4667969-7.9912109,8.6318359v24.1679688h-9.5029297V155.846756H330.9411621z"/>
		<path class="st0" d="M404.736084,139.3028107v56.1054688h-7.3427734l-1.8720703-6.6171875
			c-1.2236328,4.53125-5.3271484,7.4804688-11.8789062,7.4804688c-11.0146484,0-16.7734375-8.34375-16.7734375-20.4277344
			c0-12.2285156,5.9033203-20.8603516,17.421875-20.8603516c5.7587891,0,9.5029297,2.1582031,11.0869141,6.7617188v-22.4423828
			H404.736084z M376.947998,175.628006c0,7.8398438,2.5908203,13.4501953,9.2861328,13.4501953
			s9.2871094-5.6826172,9.2871094-13.5224609c0-7.8408203-2.5917969-13.3789062-9.2871094-13.3789062
			S376.947998,167.7871857,376.947998,175.628006z"/>
		<path class="st0" d="M426.626709,144.6260529c0,3.1650391-2.3037109,5.6103516-5.6875,5.6103516
			c-3.3828125,0-5.6865234-2.4453125-5.6865234-5.6103516s2.3037109-5.6103516,5.6865234-5.6103516
			C424.322998,139.0157013,426.626709,141.4610138,426.626709,144.6260529z M425.6188965,155.846756v6.3300781v33.2314453
			h-9.3583984V155.846756H425.6188965z"/>
		<path class="st0" d="M444.4821777,155.846756l1.7285156,6.7617188c1.2949219-4.6035156,4.8945312-7.625,11.734375-7.625
			c6.1191406,0,9.5742188,2.4462891,11.4462891,5.1787109c2.3037109,3.3095703,2.3037109,7.1933594,2.3037109,11.9404297v23.3056641
			h-9.5029297v-23.4492188c0-2.3017578,0-4.6035156-1.2958984-6.4736328s-3.1679688-2.8769531-6.2626953-2.8769531
			c-7.1279297,0-7.9912109,5.4667969-7.9912109,8.6318359v24.1679688h-9.5029297V155.846756H444.4821777z"/>
		<path class="st0" d="M498.1921387,180.4473419c-1.9433594,0-3.7431641-0.1445312-5.3984375-0.5039062
			c-0.9365234,0.5039062-2.0878906,1.4384766-2.0878906,3.2363281c0,3.0214844,3.1669922,3.0214844,5.3271484,3.0214844h6.7666016
			c4.8955078,0,15.5507812,0,15.5507812,10.6455078c0,8.6318359-6.9111328,13.2353516-21.3818359,13.2353516
			c-12.6699219,0-18.2138672-3.5244141-18.2138672-9.5664062c0-6.9775391,7.34375-7.9130859,7.703125-7.984375
			c-0.2158203-0.0722656-5.1113281-1.7265625-5.1113281-6.7617188c0-5.1074219,4.8955078-6.7617188,7.4150391-7.2646484
			c-4.3193359-2.1582031-6.8388672-5.9707031-6.8388672-10.8613281c0-7.7685547,6.3349609-12.8037109,16.2695312-12.8037109
			c4.8955078,0,8.9277344,1.2226562,11.7353516,3.4521484c1.7998047-5.0351562,5.9746094-5.0351562,8.4228516-5.0351562h0.8632812
			v7.7685547c0,0-1.4394531-0.2871094-3.1669922-0.2871094c-1.8720703,0-2.8076172,0.359375-3.3115234,0.5751953
			c1.0791016,1.7978516,1.7275391,3.9560547,1.7275391,6.3300781
			C514.4626465,175.4121857,508.1276855,180.4473419,498.1921387,180.4473419z M490.1296387,193.9698029
			c0,0-2.7353516,1.4384766-2.7353516,4.7470703c0,3.453125,3.0234375,5.0351562,9.9345703,5.0351562
			c7.6308594,0,11.6621094-1.8701172,11.6621094-5.6103516c0-4.0283203-4.8955078-4.171875-7.1992188-4.171875H490.1296387z
			 M504.8161621,167.643631c0-4.0283203-2.4482422-6.1865234-6.6240234-6.1865234
			c-4.1748047,0-6.6230469,2.1582031-6.6230469,6.1865234c0,4.0273438,2.4482422,6.1855469,6.6230469,6.1855469
			C502.3679199,173.8291779,504.8161621,171.6709747,504.8161621,167.643631z"/>
		<path class="st0" d="M559.2458496,141.3164825l17.2783203,41.2880859l16.8457031-41.2880859h12.0947266v54.0917969h-9.5029297
			v-42.2949219L579.979248,192.674881h-8.4951172l-15.9814453-39.5615234v42.2949219h-8.4951172v-54.0917969H559.2458496z"/>
		<path class="st0" d="M648.307373,194.2578888c0,0-5.3994141,1.7255859-12.5263672,1.7255859
			c-7.6308594,0-12.0947266-2.0136719-15.1181641-4.890625c-3.5996094-3.453125-5.3271484-8.6318359-5.3271484-15.1777344
			c0-12.875,6.6230469-21.0751953,18.4296875-21.0751953c6.4794922,0,11.375,2.4453125,14.1103516,6.9052734
			s2.7353516,10.3574219,2.7353516,16.5439453h-25.484375c0,6.7617188,3.8867188,10.7890625,11.3740234,10.7890625
			c5.4716797,0,11.2304688-2.1572266,11.2304688-2.1572266h0.5761719V194.2578888z M640.9645996,171.815506
			c0-6.6181641-2.015625-10.3583984-7.4873047-10.3583984c-5.5429688,0-7.7753906,3.9560547-8.3505859,10.3583984H640.9645996z"/>
		<path class="st0" d="M667.3894043,155.846756l1.7275391,6.7617188c1.1523438-4.4599609,4.4638672-7.625,11.4472656-7.625
			c6.8388672,0,10.2949219,3.0214844,12.0224609,7.9121094c1.8720703-5.3222656,5.4707031-7.9121094,11.5185547-7.9121094
			c6.1914062,0,9.5029297,2.7333984,11.0859375,5.1787109c2.1601562,3.3095703,2.1601562,7.1933594,2.1601562,11.9404297v23.3056641
			h-9.5029297v-23.4492188c0-2.3017578,0-4.6035156-1.1513672-6.4736328
			c-1.0078125-1.5820312-2.7363281-2.8769531-5.9033203-2.8769531c-6.4794922,0-7.34375,5.4667969-7.34375,8.6318359v24.1679688
			h-9.5019531v-23.4492188c0-2.3017578,0-4.6035156-1.1523438-6.4736328
			c-1.0078125-1.5820312-2.7353516-2.8769531-5.9033203-2.8769531c-6.4794922,0-7.3427734,5.4667969-7.3427734,8.6318359v24.1679688
			h-9.5029297V155.846756H667.3894043z"/>
		<path class="st0" d="M737.7321777,139.3028107v23.1611328c1.2958984-4.4589844,5.0400391-7.4804688,11.6630859-7.4804688
			c10.3662109,0,16.8457031,7.4804688,16.8457031,20.4287109c0,13.0908203-6.6230469,20.859375-17.9257812,20.859375
			c-5.9755859,0-9.8623047-2.1582031-11.5908203-6.7617188l-2.4472656,5.8984375h-5.9033203v-56.1054688H737.7321777z
			 M737.588623,175.7715607c0,7.984375,2.5917969,13.5947266,9.2871094,13.5947266
			c6.6943359,0,9.2861328-5.6826172,9.2861328-13.6669922s-2.5917969-13.5224609-9.2861328-13.5224609
			C740.1804199,162.1768341,737.588623,167.7871857,737.588623,175.7715607z"/>
		<path class="st0" d="M806.057373,194.2578888c0,0-5.3994141,1.7255859-12.5263672,1.7255859
			c-7.6308594,0-12.0947266-2.0136719-15.1181641-4.890625c-3.5996094-3.453125-5.3271484-8.6318359-5.3271484-15.1777344
			c0-12.875,6.6230469-21.0751953,18.4296875-21.0751953c6.4794922,0,11.375,2.4453125,14.1103516,6.9052734
			s2.7353516,10.3574219,2.7353516,16.5439453h-25.484375c0,6.7617188,3.8867188,10.7890625,11.3740234,10.7890625
			c5.4716797,0,11.2304688-2.1572266,11.2304688-2.1572266h0.5761719V194.2578888z M798.7145996,171.815506
			c0-6.6181641-2.015625-10.3583984-7.4873047-10.3583984c-5.5429688,0-7.7753906,3.9560547-8.3505859,10.3583984H798.7145996z"/>
		<path class="st0" d="M839.9694824,164.3340607c0,0-1.9433594-0.4306641-4.1748047-0.4306641
			c-8.4951172,0-8.4951172,6.2578125-8.4951172,9.3505859v22.1542969h-9.5029297V155.846756h7.1992188l1.8710938,7.7685547
			c1.4404297-6.6171875,6.3359375-8.2001953,12.0947266-8.2001953h1.0078125V164.3340607z"/>
		<path class="st0" d="M850.1940918,185.9131622l-5.6152344,20.140625h-7.0546875l3.1669922-20.140625H850.1940918z"/>
		<path class="st0" d="M892.6726074,141.3164825l17.2783203,41.2880859l16.8457031-41.2880859h12.0947266v54.0917969h-9.5029297
			v-42.2949219l-15.9824219,39.5615234h-8.4941406l-15.9824219-39.5615234v42.2949219h-8.4951172v-54.0917969H892.6726074z"/>
		<path class="st0" d="M951.9294434,156.9981232c0,0,4.8945312-1.7265625,12.6699219-1.7265625
			c5.9033203,0,11.2304688,1.0068359,13.9667969,4.890625c2.1591797,3.0214844,2.1591797,7.0498047,2.1591797,10.6464844v13.5224609
			c0,1.6542969,0,4.6035156,3.3837891,4.6035156c1.0800781,0,2.0878906-0.2880859,2.0878906-0.2880859v6.6181641
			c0,0-2.1601562,0.5751953-5.0400391,0.5751953c-5.0390625,0-8.2070312-1.7265625-8.7822266-7.0488281
			c-1.4404297,4.6035156-5.9033203,7.1923828-11.6630859,7.1923828c-7.7744141,0-12.6699219-4.7470703-12.6699219-11.8681641
			c0-8.5595703,7.0546875-12.7314453,19.5810547-12.7314453c2.3037109,0,3.7441406,0.1435547,3.7441406,0.1435547
			c0-3.3085938,0-4.890625-1.1523438-6.6171875c-1.1513672-1.6542969-3.0957031-2.5898438-6.9833984-2.5898438
			c-5.6865234,0-10.7265625,2.0136719-10.7265625,2.0136719h-0.5751953V156.9981232z M963.3757324,188.9346466
			c2.8076172,0,5.3994141-1.2949219,6.6953125-3.7402344c1.2958984-2.4462891,1.2958984-5.3232422,1.2958984-6.9052734v-0.8632812
			h-2.1601562c-4.1757812,0-11.375,0-11.375,6.1855469C957.8317871,186.7764435,959.7038574,188.9346466,963.3757324,188.9346466z"
			/>
		<path class="st0" d="M1017.4460449,164.3340607h-0.5761719c0,0-5.0390625-2.0136719-9.5029297-2.0136719
			c-4.03125,0-5.9033203,1.5830078-5.9033203,3.5966797c0,6.1142578,17.8544922,4.3154297,17.8544922,17.9824219
			c0,8.4160156-6.6953125,12.0839844-16.1982422,12.0839844c-6.8388672,0-11.1591797-1.8701172-11.1591797-1.8701172v-7.6240234
			h0.5761719c0,0,6.0478516,2.4453125,11.0869141,2.4453125c4.3193359,0,6.1914062-1.7265625,6.1914062-4.0283203
			c0-7.1210938-17.8544922-5.0351562-17.8544922-17.9101562c0-7.1933594,5.6152344-11.7246094,15.6220703-11.7246094
			c5.6152344,0,9.8632812,1.4384766,9.8632812,1.4384766V164.3340607z"/>
		<path class="st0" d="M1050.9265137,164.3340607h-0.5761719c0,0-5.0390625-2.0136719-9.5029297-2.0136719
			c-4.03125,0-5.9033203,1.5830078-5.9033203,3.5966797c0,6.1142578,17.8544922,4.3154297,17.8544922,17.9824219
			c0,8.4160156-6.6953125,12.0839844-16.1982422,12.0839844c-6.8388672,0-11.1591797-1.8701172-11.1591797-1.8701172v-7.6240234
			h0.5761719c0,0,6.0478516,2.4453125,11.0869141,2.4453125c4.3193359,0,6.1914062-1.7265625,6.1914062-4.0283203
			c0-7.1210938-17.8544922-5.0351562-17.8544922-17.9101562c0-7.1933594,5.6152344-11.7246094,15.6220703-11.7246094
			c5.6152344,0,9.8632812,1.4384766,9.8632812,1.4384766V164.3340607z"/>
		<path class="st0" d="M1124.1462402,166.7803497v26.4697266c0,0-7.0546875,2.8779297-16.6298828,2.8779297
			c-16.6298828,0-28.0039062-8.6318359-28.0039062-27.3339844c0-19.1328125,11.9501953-28.0527344,29.2285156-28.0527344
			c7.9189453,0,13.6777344,1.8701172,13.6777344,1.8701172v7.625h-0.5761719c0,0-5.6152344-2.3017578-12.8134766-2.3017578
			c-11.9511719,0-19.2939453,6.3300781-19.2939453,20.2841797s7.3427734,20.7158203,17.8535156,20.7158203
			c4.03125,0,7.0556641-1.0068359,7.0556641-1.0068359v-13.9550781h-9.6474609v-7.1923828H1124.1462402z"/>
		<path class="st0" d="M1165.5466309,194.2578888c0,0-5.3994141,1.7255859-12.5263672,1.7255859
			c-7.6308594,0-12.0947266-2.0136719-15.1181641-4.890625c-3.5996094-3.453125-5.3271484-8.6318359-5.3271484-15.1777344
			c0-12.875,6.6230469-21.0751953,18.4296875-21.0751953c6.4794922,0,11.3740234,2.4453125,14.1103516,6.9052734
			c2.7353516,4.4599609,2.7353516,10.3574219,2.7353516,16.5439453h-25.484375
			c0,6.7617188,3.8876953,10.7890625,11.3740234,10.7890625c5.4716797,0,11.2304688-2.1572266,11.2304688-2.1572266h0.5761719
			V194.2578888z M1158.2038574,171.815506c0-6.6181641-2.015625-10.3583984-7.4873047-10.3583984
			c-5.5429688,0-7.7753906,3.9560547-8.3505859,10.3583984H1158.2038574z"/>
		<path class="st0" d="M1184.6296387,155.846756l1.7275391,6.7617188c1.2958984-4.6035156,4.8955078-7.625,11.7353516-7.625
			c6.1191406,0,9.5742188,2.4462891,11.4462891,5.1787109c2.3037109,3.3095703,2.3037109,7.1933594,2.3037109,11.9404297v23.3056641
			h-9.5029297v-23.4492188c0-2.3017578,0-4.6035156-1.2958984-6.4736328s-3.1669922-2.8769531-6.2626953-2.8769531
			c-7.1279297,0-7.9912109,5.4667969-7.9912109,8.6318359v24.1679688h-9.5029297V155.846756H1184.6296387z"/>
		<path class="st0" d="M1253.5290527,194.2578888c0,0-5.3994141,1.7255859-12.5263672,1.7255859
			c-7.6308594,0-12.0947266-2.0136719-15.1181641-4.890625c-3.5996094-3.453125-5.3271484-8.6318359-5.3271484-15.1777344
			c0-12.875,6.6230469-21.0751953,18.4296875-21.0751953c6.4794922,0,11.3740234,2.4453125,14.1103516,6.9052734
			c2.7353516,4.4599609,2.7353516,10.3574219,2.7353516,16.5439453h-25.484375
			c0,6.7617188,3.8876953,10.7890625,11.3740234,10.7890625c5.4716797,0,11.2304688-2.1572266,11.2304688-2.1572266h0.5761719
			V194.2578888z M1246.1862793,171.815506c0-6.6181641-2.015625-10.3583984-7.4873047-10.3583984
			c-5.5429688,0-7.7753906,3.9560547-8.3505859,10.3583984H1246.1862793z"/>
		<path class="st0" d="M1287.4411621,164.3340607c0,0-1.9433594-0.4306641-4.1748047-0.4306641
			c-8.4951172,0-8.4951172,6.2578125-8.4951172,9.3505859v22.1542969h-9.5029297V155.846756h7.1992188l1.8720703,7.7685547
			c1.4394531-6.6171875,6.3349609-8.2001953,12.09375-8.2001953h1.0078125V164.3340607z"/>
		<path class="st0" d="M1294.7175293,156.9981232c0,0,4.8945312-1.7265625,12.6699219-1.7265625
			c5.9033203,0,11.2304688,1.0068359,13.9658203,4.890625c2.1601562,3.0214844,2.1601562,7.0498047,2.1601562,10.6464844v13.5224609
			c0,1.6542969,0,4.6035156,3.3837891,4.6035156c1.0800781,0,2.0878906-0.2880859,2.0878906-0.2880859v6.6181641
			c0,0-2.1601562,0.5751953-5.0400391,0.5751953c-5.0390625,0-8.2070312-1.7265625-8.7822266-7.0488281
			c-1.4404297,4.6035156-5.9033203,7.1923828-11.6630859,7.1923828c-7.7744141,0-12.6699219-4.7470703-12.6699219-11.8681641
			c0-8.5595703,7.0546875-12.7314453,19.5810547-12.7314453c2.3037109,0,3.7441406,0.1435547,3.7441406,0.1435547
			c0-3.3085938,0-4.890625-1.1523438-6.6171875c-1.1513672-1.6542969-3.0957031-2.5898438-6.9833984-2.5898438
			c-5.6865234,0-10.7265625,2.0136719-10.7265625,2.0136719h-0.5751953V156.9981232z M1306.1638184,188.9346466
			c2.8076172,0,5.3994141-1.2949219,6.6953125-3.7402344c1.2958984-2.4462891,1.2958984-5.3232422,1.2958984-6.9052734v-0.8632812
			h-2.1601562c-4.1757812,0-11.3740234,0-11.3740234,6.1855469
			C1300.6208496,186.7764435,1302.4919434,188.9346466,1306.1638184,188.9346466z"/>
		<path class="st0" d="M1345.7624512,139.3028107v16.1122894v39.9931793h-9.3583984v-56.1054688H1345.7624512z"/>
		<path class="st0" d="M1394.8640137,141.3164825c4.1757812,0,8.7832031,0,12.6708984,2.3027344
			c3.3115234,1.9414062,5.9023438,5.3222656,5.9023438,11.0048828c0,10.7890625-9.5019531,11.8681641-9.5019531,11.8681641
			s12.6699219,0.5751953,12.6699219,13.3789062c0,6.1865234-2.8798828,10.0703125-6.7666016,12.515625
			c-4.7519531,3.0214844-10.2236328,3.0214844-14.6865234,3.0214844h-17.7099609v-54.0917969H1394.8640137z
			 M1386.9450684,163.6153107h6.6230469c2.1601562,0,4.3916016,0,6.4794922-1.1513672
			c2.015625-1.1503906,3.4550781-3.1640625,3.4550781-6.4736328c0-3.3085938-1.4394531-5.4667969-3.4550781-6.6171875
			c-2.0878906-1.1503906-4.3193359-1.1503906-6.4794922-1.1503906h-6.6230469V163.6153107z M1386.9450684,188.503006h7.7753906
			c2.4472656,0,5.2548828,0,8.0625-1.5820312c2.5195312-1.4394531,3.8876953-3.7412109,3.8876953-7.1933594
			c0-3.453125-1.3681641-5.7548828-3.8876953-7.1933594c-2.8076172-1.5820312-5.6152344-1.5820312-8.0625-1.5820312h-7.7753906
			V188.503006z"/>
		<path class="st0" d="M1447.4938965,164.3340607c0,0-1.9433594-0.4306641-4.1748047-0.4306641
			c-8.4951172,0-8.4951172,6.2578125-8.4951172,9.3505859v22.1542969h-9.5029297V155.846756h7.1992188l1.8720703,7.7685547
			c1.4394531-6.6171875,6.3349609-8.2001953,12.09375-8.2001953h1.0078125V164.3340607z"/>
		<path class="st0" d="M1464.9919434,144.6260529c0,3.1650391-2.3037109,5.6103516-5.6875,5.6103516
			c-3.3828125,0-5.6865234-2.4453125-5.6865234-5.6103516s2.3037109-5.6103516,5.6865234-5.6103516
			C1462.6882324,139.0157013,1464.9919434,141.4610138,1464.9919434,144.6260529z M1463.9841309,155.846756v5.6103668v33.9511566
			h-9.3583984V155.846756H1463.9841309z"/>
		<path class="st0" d="M1490.9821777,180.4473419c-1.9433594,0-3.7431641-0.1445312-5.3984375-0.5039062
			c-0.9365234,0.5039062-2.0878906,1.4384766-2.0878906,3.2363281c0,3.0214844,3.1669922,3.0214844,5.3271484,3.0214844h6.7666016
			c4.8955078,0,15.5507812,0,15.5507812,10.6455078c0,8.6318359-6.9111328,13.2353516-21.3818359,13.2353516
			c-12.6699219,0-18.2138672-3.5244141-18.2138672-9.5664062c0-6.9775391,7.34375-7.9130859,7.703125-7.984375
			c-0.2158203-0.0722656-5.1113281-1.7265625-5.1113281-6.7617188c0-5.1074219,4.8955078-6.7617188,7.4150391-7.2646484
			c-4.3193359-2.1582031-6.8388672-5.9707031-6.8388672-10.8613281c0-7.7685547,6.3349609-12.8037109,16.2695312-12.8037109
			c4.8955078,0,8.9277344,1.2226562,11.7353516,3.4521484c1.7998047-5.0351562,5.9746094-5.0351562,8.4228516-5.0351562h0.8632812
			v7.7685547c0,0-1.4394531-0.2871094-3.1669922-0.2871094c-1.8720703,0-2.8076172,0.359375-3.3115234,0.5751953
			c1.0791016,1.7978516,1.7275391,3.9560547,1.7275391,6.3300781
			C1507.2526855,175.4121857,1500.9177246,180.4473419,1490.9821777,180.4473419z M1482.9196777,193.9698029
			c0,0-2.7353516,1.4384766-2.7353516,4.7470703c0,3.453125,3.0234375,5.0351562,9.9345703,5.0351562
			c7.6308594,0,11.6621094-1.8701172,11.6621094-5.6103516c0-4.0283203-4.8955078-4.171875-7.1992188-4.171875H1482.9196777z
			 M1497.6062012,167.643631c0-4.0283203-2.4482422-6.1865234-6.6240234-6.1865234
			c-4.1748047,0-6.6230469,2.1582031-6.6230469,6.1865234c0,4.0273438,2.4482422,6.1855469,6.6230469,6.1855469
			C1495.157959,173.8291779,1497.6062012,171.6709747,1497.6062012,167.643631z"/>
		<path class="st0" d="M1528.9255371,139.3028107v22.7304688c1.2958984-4.1728516,4.4638672-7.0498047,11.2304688-7.0498047
			c6.1914062,0,9.6474609,2.4462891,11.5195312,5.1787109c2.3027344,3.3095703,2.3027344,7.1933594,2.3027344,11.9404297v23.3056641
			h-9.5019531v-23.4492188c0-2.3017578,0-4.6035156-1.2958984-6.4736328s-3.1679688-2.8769531-6.2636719-2.8769531
			c-7.1269531,0-7.9912109,5.4667969-7.9912109,8.6318359v24.1679688h-9.3583984v-56.1054688H1528.9255371z"/>
		<path class="st0" d="M1565.8630371,156.9981232c0,0,4.8945312-1.7265625,12.6699219-1.7265625
			c5.9033203,0,11.2304688,1.0068359,13.9667969,4.890625c2.1591797,3.0214844,2.1591797,7.0498047,2.1591797,10.6464844v13.5224609
			c0,1.6542969,0,4.6035156,3.3837891,4.6035156c1.0800781,0,2.0878906-0.2880859,2.0878906-0.2880859v6.6181641
			c0,0-2.1601562,0.5751953-5.0400391,0.5751953c-5.0390625,0-8.2070312-1.7265625-8.7822266-7.0488281
			c-1.4404297,4.6035156-5.9033203,7.1923828-11.6630859,7.1923828c-7.7744141,0-12.6699219-4.7470703-12.6699219-11.8681641
			c0-8.5595703,7.0546875-12.7314453,19.5810547-12.7314453c2.3037109,0,3.7441406,0.1435547,3.7441406,0.1435547
			c0-3.3085938,0-4.890625-1.1523438-6.6171875c-1.1513672-1.6542969-3.0957031-2.5898438-6.9833984-2.5898438
			c-5.6865234,0-10.7265625,2.0136719-10.7265625,2.0136719h-0.5751953V156.9981232z M1577.3093262,188.9346466
			c2.8076172,0,5.3994141-1.2949219,6.6953125-3.7402344c1.2958984-2.4462891,1.2958984-5.3232422,1.2958984-6.9052734v-0.8632812
			h-2.1601562c-4.1757812,0-11.375,0-11.375,6.1855469C1571.7653809,186.7764435,1573.6374512,188.9346466,1577.3093262,188.9346466
			z"/>
		<path class="st0" d="M1614.892334,155.846756l1.7285156,6.7617188c1.1513672-4.4599609,4.4628906-7.625,11.4462891-7.625
			c6.8388672,0,10.2949219,3.0214844,12.0224609,7.9121094c1.8710938-5.3222656,5.4707031-7.9121094,11.5185547-7.9121094
			c6.1914062,0,9.5029297,2.7333984,11.0869141,5.1787109c2.1591797,3.3095703,2.1591797,7.1933594,2.1591797,11.9404297v23.3056641
			h-9.5029297v-23.4492188c0-2.3017578,0-4.6035156-1.1513672-6.4736328
			c-1.0078125-1.5820312-2.7363281-2.8769531-5.9033203-2.8769531c-6.4794922,0-7.34375,5.4667969-7.34375,8.6318359v24.1679688
			h-9.5019531v-23.4492188c0-2.3017578,0-4.6035156-1.1523438-6.4736328
			c-1.0078125-1.5820312-2.7353516-2.8769531-5.9033203-2.8769531c-6.4794922,0-7.3427734,5.4667969-7.3427734,8.6318359v24.1679688
			h-9.5029297V155.846756H1614.892334z"/>
	</g>
	<g>
		<path class="st0" d="M223.8317871,6.1039972c6.9599609,0,14.6396484,0,21.1191406,3.8359375
			c5.5195312,3.2363281,9.8398438,8.8710928,9.8398438,18.3408203c0,17.9804688-15.8398438,19.7783203-15.8398438,19.7783203
			s21.1191406,0.9589844,21.1191406,22.296875c0,10.3085938-4.7988281,16.7822266-11.2792969,20.8574219
			c-7.9199219,5.0351562-17.0390625,5.0351562-24.4785156,5.0351562h-29.5195312V6.1039972H223.8317871z M210.6325684,43.2641525
			h11.0390625c3.6005859,0,7.3203125,0,10.7998047-1.9179688c3.3603516-1.9179688,5.7597656-5.2734375,5.7597656-10.7880859
			s-2.3994141-9.1103516-5.7597656-11.0283203c-3.4794922-1.9179688-7.1992188-1.9179688-10.7998047-1.9179688h-11.0390625
			V43.2641525z M210.6325684,84.740715h12.9589844c4.0800781,0,8.7597656,0,13.4394531-2.6367188
			c4.2001953-2.3984375,6.4804688-6.234375,6.4804688-11.9882812s-2.2802734-9.5898438-6.4804688-11.9863281
			c-4.6796875-2.6376953-9.359375-2.6376953-13.4394531-2.6376953h-12.9589844V84.740715z"/>
		<path class="st0" d="M309.151123,44.4633713c0,0-3.2392578-0.71875-6.9599609-0.71875
			c-14.1591797,0-14.1591797,10.4287109-14.1591797,15.5830078v36.9208984h-15.8388672V30.31884h11.9990234l3.1201172,12.9453125
			c2.4003906-11.0273438,10.5595703-13.6650391,20.1591797-13.6650391h1.6796875V44.4633713z"/>
		<path class="st0" d="M335.9118652,11.6176691c0,5.2753897-3.8398438,9.350585-9.4804688,9.350585
			c-5.6396484,0-9.4794922-4.0751953-9.4794922-9.350585c0-5.2734375,3.8398438-9.3496094,9.4794922-9.3496094
			C332.0720215,2.2680597,335.9118652,6.3442316,335.9118652,11.6176691z M334.2312012,30.31884v19.6586838v46.2710037h-15.5986328
			V30.31884H334.2312012z"/>
		<path class="st0" d="M376.829834,71.3149338c-3.2402344,0-6.2402344-0.2402344-9-0.8388672
			c-1.5595703,0.8388672-3.4794922,2.3974609-3.4794922,5.3935547c0,5.0351562,5.2792969,5.0351562,8.8798828,5.0351562h11.2792969
			c8.1591797,0,25.9189453,0,25.9189453,17.7412109c0,14.3847656-11.5195312,22.0566406-35.6386719,22.0566406
			c-21.1191406,0-30.3583984-5.8740234-30.3583984-15.9433594c0-11.6279297,12.2392578-13.1855469,12.8388672-13.3056641
			c-0.359375-0.1201172-8.5195312-2.8769531-8.5195312-11.2675781c0-8.5117188,8.1601562-11.2685547,12.359375-12.1074219
			c-7.1992188-3.5966797-11.3994141-9.9492188-11.3994141-18.1015625c0-12.9453125,10.5595703-21.3369141,27.1191406-21.3369141
			c8.1591797,0,14.8789062,2.0380859,19.5585938,5.7539062c3-8.3916016,9.9599609-8.3916016,14.0400391-8.3916016h1.4394531
			v12.9472656c0,0-2.3994141-0.4804688-5.2792969-0.4804688c-3.1201172,0-4.6796875,0.5996094-5.5195312,0.9589844
			c1.7998047,2.9970703,2.8798828,6.59375,2.8798828,10.5488281
			C403.9489746,62.9243088,393.3894043,71.3149338,376.829834,71.3149338z M363.3903809,93.8510666
			c0,0-4.5595703,2.3974609-4.5595703,7.9111328c0,5.7539062,5.0390625,8.3916016,16.5585938,8.3916016
			c12.7197266,0,19.4394531-3.1162109,19.4394531-9.3505859c0-6.7128906-8.1591797-6.9521484-11.9990234-6.9521484H363.3903809z
			 M387.8688965,49.9770432c0-6.7128906-4.0791016-10.3085938-11.0390625-10.3085938s-11.0400391,3.5957031-11.0400391,10.3085938
			s4.0800781,10.3095703,11.0400391,10.3095703S387.8688965,56.6899338,387.8688965,49.9770432z"/>
		<path class="st0" d="M437.6696777,2.7475519v37.8798828c2.1591797-6.953125,7.4394531-11.7480469,18.71875-11.7480469
			c10.3193359,0,16.0791016,4.0761719,19.1992188,8.6308594c3.8398438,5.5146484,3.8398438,11.9882812,3.8398438,19.8994141
			v38.8388672h-15.8398438v-39.078125c0-3.8359375,0-7.671875-2.1591797-10.7890625
			c-2.1601562-3.1171875-5.2802734-4.7949219-10.4394531-4.7949219c-11.8798828,0-13.3193359,9.1103516-13.3193359,14.3847656
			v40.2773438h-15.5996094V2.7475519H437.6696777z"/>
		<path class="st0" d="M496.8278809,32.2368088c0,0,8.1601562-2.8769531,21.1191406-2.8769531
			c9.8398438,0,18.7197266,1.6777344,23.2792969,8.1503906c3.5996094,5.0351562,3.5996094,11.7480469,3.5996094,17.7421875V77.78759
			c0,2.7578125,0,7.671875,5.6396484,7.671875c1.7998047,0,3.4804688-0.4785156,3.4804688-0.4785156v11.0273438
			c0,0-3.6005859,0.9589844-8.3994141,0.9589844c-8.4003906,0-13.6796875-2.8769531-14.6396484-11.7470703
			c-2.4003906,7.671875-9.8398438,11.9873047-19.4394531,11.9873047c-12.9599609,0-21.1191406-7.9121094-21.1191406-19.7792969
			c0-14.2646484,11.7597656-21.2167969,32.6386719-21.2167969c3.8398438,0,6.2392578,0.2392578,6.2392578,0.2392578
			c0-5.5146484,0-8.1513672-1.9199219-11.0283203c-1.9199219-2.7568359-5.1591797-4.3154297-11.6386719-4.3154297
			c-9.4804688,0-17.8798828,3.3564453-17.8798828,3.3564453h-0.9599609V32.2368088z M515.9069824,85.459465
			c4.6806641,0,9-2.1572266,11.1601562-6.2324219c2.1591797-4.0761719,2.1591797-8.8710938,2.1591797-11.5078125v-1.4394531
			h-3.5996094c-6.9589844,0-18.9589844,0-18.9589844,10.3095703
			C506.6677246,81.8637619,509.7878418,85.459465,515.9069824,85.459465z"/>
		<path class="st0" d="M576.1462402,30.31884l2.8798828,11.2675781c1.9199219-7.4316406,7.4394531-12.7070312,19.0791016-12.7070312
			c11.3994141,0,17.1591797,5.0351562,20.0390625,13.1865234c3.1201172-8.8701172,9.1201172-13.1865234,19.1992188-13.1865234
			c10.3203125,0,15.8398438,4.5556641,18.4794922,8.6308594c3.5996094,5.5146484,3.5996094,11.9882812,3.5996094,19.8994141
			v38.8388672h-15.8388672v-39.078125c0-3.8359375,0-7.671875-1.9199219-10.7890625
			c-1.6796875-2.6367188-4.5605469-4.7949219-9.8398438-4.7949219c-10.7998047,0-12.2392578,9.1103516-12.2392578,14.3847656
			v40.2773438H603.744873v-39.078125c0-3.8359375,0-7.671875-1.9199219-10.7890625
			c-1.6796875-2.6367188-4.5595703-4.7949219-9.8388672-4.7949219c-10.7998047,0-12.2402344,9.1103516-12.2402344,14.3847656
			v40.2773438h-15.8388672V30.31884H576.1462402z"/>
		<path class="st0" d="M706.9440918,32.2368088c0,0,8.1601562-2.8769531,21.1191406-2.8769531
			c9.8398438,0,18.7197266,1.6777344,23.2792969,8.1503906c3.5996094,5.0351562,3.5996094,11.7480469,3.5996094,17.7421875V77.78759
			c0,2.7578125,0,7.671875,5.6396484,7.671875c1.8007812,0,3.4804688-0.4785156,3.4804688-0.4785156v11.0273438
			c0,0-3.5996094,0.9589844-8.4003906,0.9589844c-8.3994141,0-13.6787109-2.8769531-14.6386719-11.7470703
			c-2.4003906,7.671875-9.8398438,11.9873047-19.4394531,11.9873047c-12.9589844,0-21.1191406-7.9121094-21.1191406-19.7792969
			c0-14.2646484,11.7597656-21.2167969,32.6386719-21.2167969c3.8398438,0,6.2402344,0.2392578,6.2402344,0.2392578
			c0-5.5146484,0-8.1513672-1.9199219-11.0283203c-1.9199219-2.7568359-5.1601562-4.3154297-11.6396484-4.3154297
			c-9.4794922,0-17.8798828,3.3564453-17.8798828,3.3564453h-0.9599609V32.2368088z M726.0231934,85.459465
			c4.6796875,0,9-2.1572266,11.1601562-6.2324219c2.1601562-4.0761719,2.1601562-8.8710938,2.1601562-11.5078125v-1.4394531
			h-3.6005859c-6.9599609,0-18.9589844,0-18.9589844,10.3095703
			C716.7839355,81.8637619,719.9040527,85.459465,726.0231934,85.459465z"/>
		<path class="st0" d="M786.2634277,30.31884l2.8798828,11.2675781c2.1601562-7.671875,8.1591797-12.7070312,19.5595703-12.7070312
			c10.1992188,0,15.9589844,4.0761719,19.0791016,8.6308594c3.8398438,5.5146484,3.8398438,11.9882812,3.8398438,19.8994141
			v38.8388672h-15.8398438v-39.078125c0-3.8359375,0-7.671875-2.1591797-10.7890625
			c-2.1601562-3.1171875-5.2802734-4.7949219-10.4404297-4.7949219c-11.8789062,0-13.3193359,9.1103516-13.3193359,14.3847656
			v40.2773438h-15.8388672V30.31884H786.2634277z"/>
		<path class="st0" d="M906.8591309,2.7475519v93.5009766H894.619873l-3.1201172-11.0283203
			c-2.0400391,7.5517578-8.8798828,12.4667969-19.7988281,12.4667969c-18.359375,0-27.9589844-13.9052734-27.9589844-34.0439453
			c0-20.3789062,9.8398438-34.7636719,29.0390625-34.7636719c9.5996094,0,15.8388672,3.5966797,18.4785156,11.2685547V2.7475519
			H906.8591309z M860.5407715,63.2836838c0,13.0664062,4.3203125,22.4160156,15.4794922,22.4160156
			s15.4794922-9.4697266,15.4794922-22.5361328s-4.3203125-22.2958984-15.4794922-22.2958984
			S860.5407715,50.2172775,860.5407715,63.2836838z"/>
		<path class="st0" d="M963.9782715,6.1039972l17.7597656,70.0058594l18.2382812-67.8476562h16.0800781l18.2392578,67.8476562
			l17.7587891-70.0058594h13.9199219l-24.71875,90.1445312h-16.3203125l-18.4785156-68.5673828l-18.4794922,68.5673828H971.657959
			l-24.71875-90.1445312H963.9782715z"/>
		<path class="st0" d="M1098.4978027,97.9262619c-20.2792969,0-32.1582031-11.7470703-32.1582031-34.5234375
			c0-22.5351562,11.6396484-34.7626953,32.3984375-34.7626953c20.2792969,0,32.1582031,11.7470703,32.1582031,34.5234375
			C1130.8962402,85.6996994,1119.2575684,97.9262619,1098.4978027,97.9262619z M1114.0974121,63.2836838
			c0-14.8642578-4.9199219-23.375-15.4794922-23.375c-11.0390625,0-15.4794922,9.2294922-15.4794922,23.375
			c0,14.8642578,4.9199219,23.375,15.4794922,23.375C1109.657959,86.6586838,1114.0974121,77.428215,1114.0974121,63.2836838z"/>
		<path class="st0" d="M1155.9772949,30.31884l2.8798828,11.2675781
			c1.9199219-7.4316406,7.4394531-12.7070312,19.0791016-12.7070312c11.3994141,0,17.1591797,5.0351562,20.0390625,13.1865234
			c3.1201172-8.8701172,9.1201172-13.1865234,19.1992188-13.1865234c10.3193359,0,15.8398438,4.5556641,18.4794922,8.6308594
			c3.5996094,5.5146484,3.5996094,11.9882812,3.5996094,19.8994141v38.8388672h-15.8388672v-39.078125
			c0-3.8359375,0-7.671875-1.9199219-10.7890625c-1.6806641-2.6367188-4.5595703-4.7949219-9.8398438-4.7949219
			c-10.7998047,0-12.2392578,9.1103516-12.2392578,14.3847656v40.2773438h-15.8398438v-39.078125
			c0-3.8359375,0-7.671875-1.9199219-10.7890625c-1.6796875-2.6367188-4.5595703-4.7949219-9.8398438-4.7949219
			c-10.7988281,0-12.2392578,9.1103516-12.2392578,14.3847656v40.2773438h-15.8388672V30.31884H1155.9772949z"/>
		<path class="st0" d="M1306.3337402,94.3305588c0,0-8.9990234,2.8769531-20.8789062,2.8769531
			c-12.71875,0-20.1591797-3.3564453-25.1992188-8.1513672c-5.9990234-5.7539062-8.8789062-14.3847656-8.8789062-25.2929688
			c0-21.4580078,11.0390625-35.1230469,30.71875-35.1230469c10.7988281,0,18.9589844,4.0751953,23.5185547,11.5078125
			s4.5595703,17.2617188,4.5595703,27.5712891h-42.4775391c0,11.2675781,6.4794922,17.9804688,18.9589844,17.9804688
			c9.1201172,0,18.7197266-3.5957031,18.7197266-3.5957031h0.9589844V94.3305588z M1294.0944824,56.9301682
			c0-11.0283203-3.359375-17.2617188-12.4794922-17.2617188c-9.2392578,0-12.9589844,6.5927734-13.9189453,17.2617188H1294.0944824z
			"/>
		<path class="st0" d="M1335.7351074,30.31884l2.8798828,11.2675781c2.1601562-7.671875,8.1601562-12.7070312,19.5595703-12.7070312
			c10.1992188,0,15.9589844,4.0761719,19.0791016,8.6308594c3.8398438,5.5146484,3.8398438,11.9882812,3.8398438,19.8994141
			v38.8388672h-15.8398438v-39.078125c0-3.8359375,0-7.671875-2.1601562-10.7890625
			c-2.1591797-3.1171875-5.2792969-4.7949219-10.4394531-4.7949219c-11.8789062,0-13.3193359,9.1103516-13.3193359,14.3847656
			v40.2773438h-15.8388672V30.31884H1335.7351074z"/>
		<path class="st0" d="M1393.6950684,34.9936447l4.7998047-32.2460938h15l-8.6396484,32.2460938H1393.6950684z"/>
		<path class="st0" d="M1460.532959,44.4633713h-0.9599609c0,0-8.3994141-3.3564453-15.8388672-3.3564453
			c-6.7197266,0-9.8398438,2.6376953-9.8398438,5.9931641c0,10.1894531,29.7587891,7.1933594,29.7587891,29.96875
			c0,14.0253906-11.1591797,20.1386719-26.9990234,20.1386719c-11.3994141,0-18.5986328-3.1171875-18.5986328-3.1171875V81.3842697
			h0.9599609c0,0,10.0791016,4.0751953,18.4785156,4.0751953c7.2001953,0,10.3203125-2.8769531,10.3203125-6.7128906
			c0-11.8671875-29.7587891-8.390625-29.7587891-29.8476562c0-11.9873047,9.359375-19.5390625,26.0380859-19.5390625
			c9.3603516,0,16.4394531,2.3964844,16.4394531,2.3964844V44.4633713z"/>
		<path class="st0" d="M1524.0114746,6.1039972v37.1601562h39.8378906V6.1039972h16.0800781v90.1445312h-16.0800781V55.4916916
			h-39.8378906v40.7568359h-16.0800781V6.1039972H1524.0114746z"/>
		<path class="st0" d="M1626.1306152,97.9262619c-20.2792969,0-32.1582031-11.7470703-32.1582031-34.5234375
			c0-22.5351562,11.6396484-34.7626953,32.3984375-34.7626953c20.2792969,0,32.1582031,11.7470703,32.1582031,34.5234375
			C1658.5290527,85.6996994,1646.8903809,97.9262619,1626.1306152,97.9262619z M1641.7302246,63.2836838
			c0-14.8642578-4.9199219-23.375-15.4794922-23.375c-11.0390625,0-15.4794922,9.2294922-15.4794922,23.375
			c0,14.8642578,4.9199219,23.375,15.4794922,23.375C1637.2907715,86.6586838,1641.7302246,77.428215,1641.7302246,63.2836838z"/>
		<path class="st0" d="M1710.6081543,44.4633713h-0.9599609c0,0-8.3994141-3.3564453-15.8388672-3.3564453
			c-6.7197266,0-9.8398438,2.6376953-9.8398438,5.9931641c0,10.1894531,29.7587891,7.1933594,29.7587891,29.96875
			c0,14.0253906-11.1591797,20.1386719-26.9990234,20.1386719c-11.3994141,0-18.5986328-3.1171875-18.5986328-3.1171875V81.3842697
			h0.9599609c0,0,10.0791016,4.0751953,18.4785156,4.0751953c7.2001953,0,10.3203125-2.8769531,10.3203125-6.7128906
			c0-11.8671875-29.7587891-8.390625-29.7587891-29.8476562c0-11.9873047,9.359375-19.5390625,26.0390625-19.5390625
			c9.359375,0,16.4384766,2.3964844,16.4384766,2.3964844V44.4633713z"/>
		<path class="st0" d="M1726.689209,119.7436447V30.31884h12.2392578l3.1201172,11.0273438
			c2.0400391-7.5517578,8.8789062-12.4667969,19.7988281-12.4667969c18.359375,0,27.9589844,13.90625,27.9589844,34.0449219
			c0,20.3779297-9.8398438,34.7626953-29.0390625,34.7626953c-9.5996094,0-15.8388672-3.5966797-18.4785156-11.2685547v33.3251953
			H1726.689209z M1773.0075684,63.2836838c0-13.0664062-4.3203125-22.4160156-15.4794922-22.4160156
			c-11.1601562,0-15.4794922,9.4697266-15.4794922,22.5351562c0,13.0664062,4.3193359,22.296875,15.4794922,22.296875
			C1768.6872559,85.6996994,1773.0075684,76.35009,1773.0075684,63.2836838z"/>
		<path class="st0" d="M1820.0476074,11.6176691c0,5.2753897-3.8398438,9.350585-9.4794922,9.350585
			c-5.640625,0-9.4804688-4.0751953-9.4804688-9.350585c0-5.2734375,3.8398438-9.3496094,9.4804688-9.3496094
			C1816.2077637,2.2680597,1820.0476074,6.3442316,1820.0476074,11.6176691z M1818.3669434,30.31884v10.5488281v55.3808594
			h-15.5986328V30.31884H1818.3669434z"/>
		<path class="st0" d="M1874.0446777,95.7690353c0,0-5.0390625,1.4384766-11.9990234,1.4384766
			c-9.1201172,0-15.5996094-2.3974609-18.9599609-7.4316406c-2.8789062-4.4355469-2.8789062-10.0703125-2.8789062-17.0224609
			V42.7856369h-12V31.2778244h12V14.2553644l15.5986328-4.5556641v21.578125h18.2392578v11.5078125h-18.2392578v29.7285156
			c0,4.3144531,0,7.4316406,1.4404297,9.8291016c1.4394531,2.3974609,4.0800781,3.1162109,7.0791016,3.1162109
			c4.6806641,0,8.7597656-1.6777344,8.7597656-1.6777344h0.9599609V95.7690353z"/>
		<path class="st0" d="M1888.4450684,32.2368088c0,0,8.1601562-2.8769531,21.1191406-2.8769531
			c9.8398438,0,18.7197266,1.6777344,23.2792969,8.1503906c3.5996094,5.0351562,3.5996094,11.7480469,3.5996094,17.7421875V77.78759
			c0,2.7578125,0,7.671875,5.6396484,7.671875c1.7998047,0,3.4804688-0.4785156,3.4804688-0.4785156v11.0273438
			c0,0-3.6005859,0.9589844-8.3994141,0.9589844c-8.4003906,0-13.6796875-2.8769531-14.6396484-11.7470703
			c-2.4003906,7.671875-9.8398438,11.9873047-19.4394531,11.9873047c-12.9599609,0-21.1191406-7.9121094-21.1191406-19.7792969
			c0-14.2646484,11.7597656-21.2167969,32.6386719-21.2167969c3.8398438,0,6.2392578,0.2392578,6.2392578,0.2392578
			c0-5.5146484,0-8.1513672-1.9199219-11.0283203c-1.9199219-2.7568359-5.1591797-4.3154297-11.6386719-4.3154297
			c-9.4804688,0-17.8798828,3.3564453-17.8798828,3.3564453h-0.9599609V32.2368088z M1907.5241699,85.459465
			c4.6806641,0,9-2.1572266,11.1601562-6.2324219c2.1591797-4.0761719,2.1591797-8.8710938,2.1591797-11.5078125v-1.4394531
			h-3.5996094c-6.9589844,0-18.9589844,0-18.9589844,10.3095703
			C1898.2849121,81.8637619,1901.4050293,85.459465,1907.5241699,85.459465z"/>
		<path class="st0" d="M1971.1228027,2.7475519v93.5009766h-15.5986328V29.3598595V2.7475519H1971.1228027z"/>
	</g>
	<g>
		<polygon class="st1" points="18.902441,75.7510681 0.0000268,75.7510681 0.0000268,107.8169785 0.0000268,136.8668671 
			18.902441,136.8668671 		"/>
		<polygon class="st1" points="40.603302,75.7510681 40.603302,107.8169785 40.603302,136.8668671 59.5057182,136.8668671 
			59.5057182,75.7510681 		"/>
		<polygon class="st1" points="81.2065811,75.7510681 81.2065811,107.8169785 81.2065811,136.8668671 100.1089935,136.8668671 
			100.1089935,75.7510681 		"/>
		<polygon class="st1" points="0.0000268,64.3054047 70.3559875,64.3054047 140.7119446,64.3054047 140.7119446,47.0916481 
			0.0000268,47.0916481 		"/>
		<polygon class="st1" points="70.3559875,0 0.0000268,23.4519882 0.0000268,41.2286491 70.3559875,17.7766628 
			140.7119446,41.2286491 140.7119446,23.4519882 		"/>
		<path class="st1" d="M140.7120056,135.5079041c-0.3740387,1.0343628-7.1938629,12.8046265-52.1156158,12.8046265
			l-36.4807663-0.0000153C6.0393538,148.6659393,0.8772915,154.6625671,0,155.3012238v17.5889435
			c0.8772915-0.6386414,6.0393538-6.6352844,52.1156235-6.9886932l36.4807663,0.0000153
			c44.9217529,0,51.7415771-11.7702637,52.1156158-12.8046265V135.5079041z"/>
		<path class="st1" d="M140.7120056,164.822998c-0.3740387,1.0343628-7.1938629,12.8046265-52.1156158,12.8046265
			l-36.4807663-0.0000153C6.0393538,177.9810181,0.8772915,183.9776611,0,184.6163177v17.5889435
			c0.8772915-0.6386414,6.0393538-6.6352844,52.1156235-6.9886932l36.4807663,0.0000153
			c44.9217529,0,51.7415771-11.7702637,52.1156158-12.8046417V164.822998z"/>
		<path class="st1" d="M121.8103485,75.750946v57.9710693c15.496933-3.5631561,18.651413-9.0567169,18.9015045-9.7486572V75.750946
			H121.8103485z"/>
	</g>
</g>
</svg>